<?xml version="1.0" encoding="UTF-8" standalone="no"?>
<svg
   xmlns:dc="http://purl.org/dc/elements/1.1/"
   xmlns:cc="http://creativecommons.org/ns#"
   xmlns:rdf="http://www.w3.org/1999/02/22-rdf-syntax-ns#"
   xmlns:svg="http://www.w3.org/2000/svg"
   xmlns="http://www.w3.org/2000/svg"
   xmlns:xlink="http://www.w3.org/1999/xlink"
   xmlns:sodipodi="http://sodipodi.sourceforge.net/DTD/sodipodi-0.dtd"
   xmlns:inkscape="http://www.inkscape.org/namespaces/inkscape"
   sodipodi:docname="drawing01_min.svg"
   inkscape:version="1.0 (4035a4fb49, 2020-05-01)"
   id="svg8"
   version="1.1"
   viewBox="0 0 300 299.99999"
   height="300mm"
   width="300mm"
   inkscape:export-filename="C:\Users\anon_alexdos2010m\Desktop\logo\drawing01_min.png"
   inkscape:export-xdpi="500"
   inkscape:export-ydpi="500">
  <defs
     id="defs2">
    <linearGradient
       gradientTransform="matrix(2.2756052,0,0,2.2756052,-666.8464,-47.612099)"
       gradientUnits="userSpaceOnUse"
       y2="82.300179"
       x2="365.00494"
       y1="67.598396"
       x1="335.8985"
       id="linearGradient1264"
       xlink:href="#linearGradient1332"
       inkscape:collect="always" />
    <linearGradient
       id="linearGradient1332"
       inkscape:collect="always">
      <stop
         id="stop1328"
         offset="0"
         style="stop-color:#970000;stop-opacity:1;" />
      <stop
         id="stop1330"
         offset="1"
         style="stop-color:#970000;stop-opacity:0;" />
    </linearGradient>
    <linearGradient
       gradientTransform="translate(125.37945,30.82396)"
       gradientUnits="userSpaceOnUse"
       y2="183.52866"
       x2="-16.81625"
       y1="171.95465"
       x1="-38.440567"
       id="linearGradient1334"
       xlink:href="#linearGradient1332"
       inkscape:collect="always" />
  </defs>
  <sodipodi:namedview
     inkscape:window-maximized="1"
     inkscape:window-y="-8"
     inkscape:window-x="-8"
     inkscape:window-height="1017"
     inkscape:window-width="1920"
     fit-margin-bottom="20"
     fit-margin-right="0"
     fit-margin-left="0"
     fit-margin-top="0"
     showgrid="false"
     inkscape:document-rotation="0"
     inkscape:current-layer="layer1"
     inkscape:document-units="mm"
     inkscape:cy="469.67789"
     inkscape:cx="429.73017"
     inkscape:zoom="0.49497475"
     inkscape:pageshadow="2"
     inkscape:pageopacity="1"
     borderopacity="1.0"
     bordercolor="#666666"
     pagecolor="#ffffff"
     id="base"
     showguides="true"
     inkscape:guide-bbox="true"
     inkscape:pagecheckerboard="false"
     lock-margins="false" />
  <metadata
     id="metadata5">
    <rdf:RDF>
      <cc:Work
         rdf:about="">
        <dc:format>image/svg+xml</dc:format>
        <dc:type
           rdf:resource="http://purl.org/dc/dcmitype/StillImage" />
        <dc:title></dc:title>
      </cc:Work>
    </rdf:RDF>
  </metadata>
  <g
     transform="translate(-15.815146,-40.022255)"
     id="layer1"
     inkscape:groupmode="layer"
     inkscape:label="Layer 1">
    <rect
       inkscape:export-ydpi="500"
       inkscape:export-xdpi="500"
       y="40.022255"
       x="16.884224"
       height="299.8764"
       width="300.41095"
       id="rect866"
       style="fill:#000000;stroke-width:0.264999" />
    <g
       transform="translate(67.590978,59.645487)"
       id="g1354"
       inkscape:export-xdpi="500"
       inkscape:export-ydpi="500">
      <g
         id="g1347">
        <g
           id="g1341">
          <path
             id="path976"
             d="m 94.150648,175.64238 c -6.621351,-6.87588 -10.734007,-14.39821 -10.734007,-19.63324 0,-2.46965 -2.971599,-5.45028 -7.956039,-7.98021 -4.858326,-2.46591 -9.207235,-2.52883 -19.6846,-0.28481 -4.77117,1.02191 -9.434841,1.85799 -10.363697,1.85799 -4.298641,0 -14.606041,-5.69564 -20.157516,-11.13861 -3.40913,-3.34248 -6.863567,-8.74695 -6.863567,-10.73808 0,-0.46402 6.141085,-4.87578 13.64685,-9.80393 7.505788,-4.92814 13.925179,-9.14406 14.265337,-9.36871 0.963468,-0.63626 -0.563076,-3.41466 -2.314609,-4.21271 -0.832758,-0.37944 -1.514097,-1.03172 -1.514097,-1.44952 0,-0.41782 4.753512,-5.543894 10.563314,-11.391289 L 63.601331,80.867642 61.100236,74.470643 C 58.140038,66.899454 55.604399,57.345281 55.848048,54.680638 l 0.173629,-1.898992 4.816682,1.630175 c 2.649192,0.896589 6.261396,2.360758 8.027129,3.253706 1.765733,0.892925 3.255914,1.622757 3.311484,1.621801 0.05552,-0.0012 0.13062,-2.934871 0.166802,-6.519836 0.07373,-7.315434 1.099094,-12.745237 2.406702,-12.745237 1.127768,0 11.11929,3.946586 15.33164,6.055913 9.940824,4.977841 19.109194,12.827814 23.440534,20.069813 2.08962,3.493873 2.16078,3.544665 9.33073,6.660606 20.98875,9.121376 41.04543,24.766244 51.5897,40.241683 2.27001,3.33162 3.47624,6.27311 2.26564,5.52489 -0.31385,-0.19388 -0.60449,0.0699 -0.64589,0.58602 -0.11401,1.42236 -0.18296,1.62061 -1.65263,4.76054 -0.75143,1.6053 -1.19761,3.35813 -0.99153,3.8952 0.20617,0.53706 0.19274,0.79444 -0.0298,0.57195 -0.22255,-0.22256 -0.79806,-0.0114 -1.279,0.46991 -0.48095,0.48095 -1.60019,0.8787 -2.4872,0.88389 -2.56283,0.0159 -12.25315,2.20199 -17.38398,3.92335 -13.75535,4.61488 -28.99999,14.98386 -38.22177,25.99738 -2.90706,3.47189 -3.83717,4.24996 -4.23365,3.54152 -0.48871,-0.87328 0.39168,-8.28768 1.14481,-9.64146 0.19889,-0.35743 -0.70341,0.36393 -2.00504,1.603 -4.78557,4.5556 -8.8668,13.29989 -9.614723,20.60024 -0.222099,2.16687 -0.592727,3.93977 -0.823814,3.93977 -0.231088,0 -2.181305,-1.82883 -4.3338,-4.06409 z m -6.521156,-35.6735 c 1.087443,-2.15241 3.52473,-6.21648 5.41619,-9.03131 1.891483,-2.81486 3.943874,-5.99845 4.560905,-7.07467 0.61703,-1.07625 1.312865,-1.9568 1.546296,-1.9568 0.233455,0 0.619807,0.88055 0.858587,1.9568 l 0.43416,1.95677 0.85283,-2.40835 c 2.55057,-7.20254 2.19255,-13.22656 -1.05228,-17.70593 -3.301612,-4.55775 -9.97512,-7.573195 -18.321699,-8.278747 -4.74937,-0.401462 -5.352155,-1.066189 -1.647675,-1.816957 l 2.236716,-0.4533 -2.953554,-0.360684 c -9.507934,-1.161127 -19.647735,3.786994 -25.674766,12.529048 -1.71815,2.49213 -3.633618,3.91036 -12.58883,9.3209 l -10.562358,6.38153 -0.0537,4.40669 c -0.0396,3.24246 -0.394795,5.07114 -1.344564,6.9217 l -1.290815,2.51503 2.849809,2.0753 c 3.775889,2.74973 8.866122,5.57269 12.1158,6.71925 2.497181,0.88107 2.869311,0.85438 7.219949,-0.51754 7.574716,-2.38861 15.679534,-3.45319 24.756992,-3.25186 8.122067,0.18022 8.652738,0.42626 3.672736,1.70329 l -2.649192,0.67933 2.979814,1.70186 c 1.638891,0.936 3.360864,2.16098 3.82659,2.72212 0.764398,0.92108 0.943466,0.73625 1.84085,-1.89988 0.54676,-1.60609 1.883837,-4.68121 2.971281,-6.83359 z M 65.389706,109.931 c -0.350784,-0.65539 -0.637761,-1.73242 -0.637761,-2.39334 0,-1.15453 -0.189103,-1.13271 -4.816705,0.55618 -2.649191,0.96683 -4.808764,1.55751 -4.799047,1.31264 0.0091,-0.24488 2.692724,-2.4773 5.962222,-4.96089 5.708424,-4.33626 6.060529,-4.508795 8.863141,-4.34252 5.689514,0.33752 12.872416,2.60503 16.099771,5.08239 1.033193,0.79309 0.683478,0.90983 -3.750061,1.25172 -5.851696,0.45125 -11.727559,1.88504 -14.36271,3.5047 -1.910143,1.17405 -1.924752,1.17399 -2.55885,-0.0114 z m 3.182525,-4.60826 c -0.196157,-0.51101 -0.48566,-0.79996 -0.643473,-0.64215 -0.157927,0.15793 -0.108319,0.57593 0.109912,0.92911 0.593683,0.9606 0.94069,0.77398 0.533561,-0.28696 z m 6.076458,-1.63252 c -2.640795,-0.54867 -3.875879,-0.25129 -3.875879,0.93321 0,0.66516 0.57789,0.69934 3.097553,0.18318 l 3.097554,-0.63453 z m 75.900671,21.88723 c 6.28113,-2.03944 13.92793,-3.28399 18.31182,-2.98036 1.68467,0.11674 3.06285,0.023 3.06264,-0.20845 -2e-4,-0.23133 -2.12279,-3.0762 -4.71689,-6.32192 -5.81413,-7.27461 -18.10567,-19.174275 -24.60753,-23.822995 -5.0044,-3.578048 -15.21827,-9.686059 -15.58458,-9.319755 -0.11378,0.113553 1.44938,1.412605 3.47351,2.886514 8.50162,6.190639 16.13595,17.050806 17.12072,24.354956 l 0.40588,3.01042 -2.72802,-2.50779 c -2.28,-2.09597 -5.77032,-4.4162 -6.64324,-4.4162 -0.12357,0 0.4365,1.96431 1.24475,4.36511 2.02968,6.02886 1.64939,11.48221 -1.19894,17.19213 l -2.01378,4.03695 4.22744,-2.25456 c 2.3251,-1.24002 6.66588,-3.04633 9.64622,-4.01403 z M 90.149724,76.298 c 0.06053,-0.910652 0.05757,-2.41601 -0.0068,-3.345231 -0.09535,-1.377606 0.05848,-1.591354 0.833053,-1.157828 0.522525,0.292415 1.496347,1.323628 2.164032,2.29158 l 1.21399,1.75993 -0.260488,-4.225139 c -0.178408,-2.892499 -0.755251,-5.258923 -1.829177,-7.502852 -0.862773,-1.80278 -1.441277,-3.405147 -1.285558,-3.560866 0.423263,-0.423263 4.284487,3.453981 6.70077,6.728599 1.168592,1.583685 2.624394,4.157599 3.235114,5.719825 l 1.11043,2.840433 0.002,-2.709404 c 0.007,-5.63037 -3.814672,-12.333597 -9.953345,-17.460513 -3.151554,-2.632147 -12.560203,-8.429228 -13.680597,-8.429228 -0.879044,0 -0.0068,14.910902 1.110586,18.965735 0.547101,1.986899 1.672843,5.136541 2.501687,6.999192 1.371029,3.081147 1.733488,3.441284 4.017444,3.991799 3.810706,0.918525 4.007318,0.875334 4.125786,-0.906032 z"
             style="mix-blend-mode:normal;fill:url(#linearGradient1264);fill-opacity:1;stroke-width:0.603035;stroke-miterlimit:4;stroke-dasharray:none"
             sodipodi:nodetypes="sssssssssssscsscsscsssssssssssccsssssssssssssscsssscssscsscssssscssssscsscsssssccssssssscsssssscsscsssscssscssscsssssccsscsscc" />
          <path
             sodipodi:nodetypes="cssscccsssssssssssssscssssscsscssssscsssssssscsssssssssssscssssccssssssssaa"
             style="fill:#ffffff;stroke-width:0.602086"
             d="m 138.90684,220.55792 c -0.49674,-0.18911 -1.10219,-0.64168 -1.3455,-1.00596 -0.61682,-0.92362 -0.56337,-6.25825 0.0881,-8.7905 0.2982,-1.15904 0.70874,-3.50202 0.91234,-5.20665 l 0.37019,-3.09933 -2.69893,-0.21459 -2.69894,-0.21459 -1.34848,7.37806 c -0.74169,4.05795 -1.57617,7.37808 -1.85446,7.37808 -0.27828,0 -1.09202,0.54596 -1.80826,1.21326 -0.71625,0.6673 -1.53424,1.13593 -1.81773,1.04143 -0.2835,-0.0944 -1.15562,-2.06291 -1.93804,-4.37421 -0.78243,-2.31131 -1.95074,-5.37398 -2.59627,-6.80595 -1.06106,-2.35375 -1.20707,-2.46929 -1.52187,-1.20416 -0.19161,0.76965 -0.53429,3.22819 -0.76172,5.46345 -0.2875,2.82555 -0.66341,4.0641 -1.23349,4.0641 -0.451,0 -0.81999,0.27093 -0.81999,0.60208 0,0.90432 -1.16752,0.72475 -2.23624,-0.34396 -1.17614,-1.17615 -0.76371,-8.00613 0.86662,-14.35165 1.27156,-4.94917 2.21146,-5.76884 5.06133,-4.41397 1.71296,0.81439 2.30421,1.68914 3.80493,5.6296 l 1.77684,4.6654 0.98069,-4.4735 c 1.39058,-6.34332 1.3397,-6.25446 3.64165,-6.36118 8.81531,-0.40872 30.29407,-0.22301 30.78327,0.26627 0.93227,0.93229 0.29747,2.76923 -1.18181,3.41993 -0.74314,0.3269 -1.35118,0.80102 -1.35118,1.05366 0,0.25261 -0.74508,0.46301 -1.65573,0.46752 -2.62537,0.0136 -4.36514,0.65986 -4.36514,1.62287 0,0.69001 0.70628,0.85422 3.16095,0.73493 1.73854,-0.0844 3.6351,0.0548 4.21461,0.30982 1.5706,0.69081 1.27415,2.07959 -0.60208,2.82064 -0.91065,0.35968 -2.07256,0.86225 -2.58202,1.11682 -0.50946,0.25457 -2.04083,0.65116 -3.40301,0.88132 -1.59365,0.26925 -2.57289,0.78615 -2.74642,1.44976 -0.24051,0.91964 0.33105,1.02908 5.27869,1.01069 l 5.54841,-0.0205 0.3747,-4.81422 c 0.20617,-2.64783 0.64898,-4.90566 0.98422,-5.0174 0.33524,-0.11173 0.60952,-1.27286 0.60952,-2.58026 0,-1.67632 0.29997,-2.49217 1.01754,-2.76752 0.5681,-0.218 1.12214,-0.0767 1.25436,0.31993 0.13016,0.39072 0.64813,0.71042 1.15086,0.71042 0.76888,0 0.8526,0.69326 0.52708,4.36513 -0.21277,2.40081 -0.54105,5.41637 -0.72933,6.70123 l -0.34237,2.33611 2.92607,-0.42253 c 1.60933,-0.23239 3.53567,-0.56793 4.28075,-0.74563 0.78442,-0.18705 1.35469,-0.0421 1.35469,0.34423 0,0.36706 0.81282,0.66737 1.80626,0.66737 1.91863,0 2.27401,0.84552 1.03451,2.46138 -0.86994,1.13407 -11.26356,4.34766 -14.28042,4.41534 -1.91442,0.043 -2.10514,-0.10422 -2.08357,-1.60847 0.0255,-1.78328 -0.57302,-2.15518 -1.34852,-0.83783 -0.48293,0.82038 -7.95904,2.19257 -11.94572,2.19257 -2.00606,0 -2.08257,-0.0831 -2.07847,-2.25783 0.005,-2.42223 1.45186,-12.15458 2.16301,-14.5452 0.38885,-1.30724 0.28873,-1.41162 -1.01852,-1.06186 -0.79739,0.21345 -2.01687,0.39161 -2.70995,0.39614 -1.11286,0.007 -1.39435,0.6944 -2.40834,5.87857 -0.6315,3.22869 -1.1482,7.69919 -1.1482,9.93442 0,2.23526 -0.18114,4.0641 -0.4023,4.0641 -0.22119,0 -0.76317,0.11401 -1.20419,0.25334 -0.44103,0.13927 -1.20825,0.0988 -1.70497,-0.0903 z m -29.50224,-1.35497 c -0.68418,-0.43282 -0.87943,-1.63493 -0.80527,-4.95797 0.12948,-5.80052 2.08825,-16.7975 3.05837,-17.16976 0.418,-0.16043 1.43675,-0.12175 2.26388,0.0858 1.78961,0.44916 1.90207,1.83926 0.58868,7.2785 -0.47974,1.9869 -0.87622,5.58636 -0.88168,7.99884 -0.0137,5.9052 -1.58988,8.43105 -4.22398,6.76458 z M 108.20037,201.199 c -0.0626,0.72667 0.20185,-2.34321 0,0 z"
             id="path976-3" />
          <path
             id="path976-3-8"
             d="m 35.091098,218.54573 c -0.465839,-2.57066 0.44909,-11.27235 1.365204,-12.98413 0.585308,-1.09368 0.545713,-1.51739 -0.212769,-2.27581 -1.503993,-1.50399 -1.171892,-4.16272 0.67078,-5.37006 2.060355,-1.35001 12.685224,-1.50741 13.528382,-0.20048 0.438031,0.67899 0.609043,0.67785 1.050715,-0.007 0.38774,-0.60124 2.15229,-0.81803 6.657874,-0.81803 3.371674,0 6.236251,0.10581 6.36571,0.23538 0.129482,0.12949 -0.05461,1.37816 -0.409176,2.77483 -0.640652,2.52394 -0.66161,2.53951 -3.431272,2.54831 -2.940286,0.009 -5.535023,0.99008 -5.950252,2.24896 -0.178635,0.54187 0.693081,0.75261 3.113415,0.75261 3.580937,0 3.832733,0.28912 2.989781,3.43285 -0.274529,1.02384 -1.094794,1.49097 -3.604286,2.05257 l -3.248904,0.72708 v 2.88628 c 0,4.1249 -0.974073,5.9534 -3.171488,5.9534 -1.390987,0 -1.692869,-0.21141 -1.398178,-0.97945 0.206625,-0.5387 0.113781,-1.29523 -0.206625,-1.68121 -0.533834,-0.64323 0.303953,-7.64067 1.501604,-12.54205 0.258827,-1.05922 0.162478,-1.65573 -0.267702,-1.65573 -0.369741,0 -0.67226,-0.34864 -0.67226,-0.7748 0,-0.58583 -0.844295,-0.6822 -3.462014,-0.39515 -4.126059,0.45241 -5.569294,1.00634 -5.569294,2.13749 0,0.60506 0.838629,0.83872 3.010421,0.83872 h 3.010444 v 2.08612 c 0,2.31572 -0.746922,2.92859 -4.365134,3.58173 -2.214551,0.39978 -2.257833,0.45956 -2.257833,3.11959 0,3.58061 -1.396721,6.26474 -3.259941,6.26474 -1.131021,0 -1.495437,-0.40122 -1.777339,-1.95677 z m 29.551896,-0.8879 c -1.871207,-2.47649 -1.917083,-4.05979 -0.119241,-4.11791 4.564295,-0.14769 8.922625,-2.6164 6.889303,-3.90253 -0.483543,-0.30586 -1.42107,-0.58098 -2.083362,-0.61138 -3.551013,-0.16317 -5.719824,-1.67642 -5.719824,-3.99123 0,-3.56467 5.53211,-8.01368 9.964625,-8.01368 1.473568,0 2.679206,0.27093 2.679206,0.60208 0,0.33116 0.374815,0.6021 0.832917,0.6021 0.938664,0 1.661806,2.08475 1.168774,3.36955 -0.178408,0.46477 -0.986066,0.84505 -1.794975,0.84505 -1.738062,0 -5.023421,1.58519 -5.023421,2.42382 0,0.32263 0.27016,0.58662 0.60035,0.58662 1.354326,0 5.420537,4.38646 5.420537,5.84747 0,3.10545 -4.827036,7.36254 -9.332371,8.23043 -1.562863,0.30108 -2.032115,0.0489 -3.482427,-1.87039 z m 43.920206,-3.3052 c 0.12948,-5.80052 -0.0742,3.32304 0,0 z m -87.516641,2.85836 c -2.32414,-1.01075 -4.39958,-4.74725 -4.39958,-7.92074 0,-2.62179 2.28662,-6.8397 4.49097,-8.28405 0.84145,-0.55133 1.52989,-1.4093 1.52989,-1.90657 0,-1.84959 5.260723,-2.70066 8.884624,-1.43736 2.075261,0.72344 3.46065,3.32216 3.014699,5.65502 -0.156561,0.81892 0.01365,1.59428 0.380459,1.72306 0.440011,0.15497 0.145411,1.73856 -0.870214,4.67951 -1.278299,3.70118 -1.96651,4.77427 -4.110904,6.40983 -2.867945,2.18748 -5.611664,2.52008 -8.919944,1.0813 z m 4.798823,-5.13991 c 1.64747,-1.29591 4.649608,-6.78715 4.649608,-8.50466 0,-1.98508 -2.234235,-1.9253 -4.789489,0.12812 -2.929572,2.35427 -4.709412,6.38 -3.675102,8.3126 0.85021,1.58864 1.85516,1.60548 3.814983,0.0639 z m 51.61241,5.42926 c 0,-0.95244 2.370748,-17.63528 2.717755,-19.12455 0.300858,-1.29125 0.589996,-1.35426 6.174514,-1.34548 3.22237,0.005 6.208033,0.23077 6.6348,0.50152 1.03804,0.65859 -0.08261,3.70387 -1.363133,3.70387 -0.504889,0 -0.918025,0.27096 -0.918025,0.6021 0,0.33115 -0.926126,0.60208 -2.058035,0.60208 -2.703851,0 -3.962829,0.52237 -3.962829,1.64419 0,0.73493 0.624289,0.8615 3.196883,0.64816 2.215712,-0.18364 3.432956,-0.0114 3.96613,0.55839 1.128677,1.20828 0.348987,2.54076 -1.730029,2.95656 -1.001243,0.20025 -1.820461,0.5704 -1.820461,0.82256 0,0.25216 -1.195239,0.6377 -2.656041,0.85677 -1.597634,0.23957 -2.802954,0.78103 -3.024643,1.35872 -0.202757,0.52821 -0.294418,1.00563 -0.203895,1.06093 0.09057,0.0553 2.467735,-0.009 5.282431,-0.14291 l 5.11779,-0.2434 0.138357,-3.64295 c 0.150873,-3.97209 0.942966,-5.59236 4.266168,-8.72655 1.749213,-1.64973 2.544992,-1.96722 4.930881,-1.96722 3.21788,0 6.21981,1.34031 6.01785,3.68352 -0.0626,0.72667 -0.28179,1.13489 -2.03416,0.80614 -2.70383,-0.50724 -5.36633,0.91233 -7.359194,3.92375 -1.302216,1.96774 -1.492706,2.76375 -1.148703,4.79991 0.226878,1.34252 0.541867,2.44096 0.700112,2.44096 0.764513,0 3.109805,-1.53012 4.810305,-3.13836 1.56398,-1.47912 2.10021,-1.67844 3.09016,-1.14861 1.40016,0.74933 2.11666,4.19612 1.1272,5.42251 -0.37029,0.45897 -1.70195,1.48388 -2.95924,2.27757 -1.84535,1.1649 -2.94524,1.41026 -5.706012,1.27281 -3.089407,-0.15383 -3.545097,-0.35609 -4.714121,-2.09253 l -1.294091,-1.92227 -0.742553,1.38746 c -0.624721,1.16729 -1.521697,1.49634 -5.65258,2.07355 -6.02867,0.84241 -8.823591,0.87115 -8.823591,0.0908 z"
             style="fill:url(#linearGradient1334);fill-opacity:1;stroke-width:0.602086"
             sodipodi:nodetypes="csssssssscsssscsssssssssscssssccssscsssssssssssssssssssscsssssssssscsssssscsssssscsssasssssssssscsss" />
        </g>
      </g>
    </g>
  </g>
</svg>
